<?xml version="1.0" encoding="UTF-8" standalone="no"?>
<!-- Created with Inkscape (http://www.inkscape.org/) -->

<svg
   xmlns:dc="http://purl.org/dc/elements/1.1/"
   xmlns:cc="http://creativecommons.org/ns#"
   xmlns:rdf="http://www.w3.org/1999/02/22-rdf-syntax-ns#"
   xmlns:svg="http://www.w3.org/2000/svg"
   xmlns="http://www.w3.org/2000/svg"
   xmlns:sodipodi="http://sodipodi.sourceforge.net/DTD/sodipodi-0.dtd"
   xmlns:inkscape="http://www.inkscape.org/namespaces/inkscape"
   width="210mm"
   height="210mm"
   viewBox="0 0 210 210"
   version="1.1"
   id="svg5448"
   inkscape:version="0.92.3 (2405546, 2018-03-11)"
   sodipodi:docname="check.svg">
  <defs
     id="defs5442" />
  <sodipodi:namedview
     id="base"
     pagecolor="#ffffff"
     bordercolor="#666666"
     borderopacity="1.0"
     inkscape:pageopacity="0.0"
     inkscape:pageshadow="2"
     inkscape:zoom="0.98994949"
     inkscape:cx="322.33594"
     inkscape:cy="674.86311"
     inkscape:document-units="mm"
     inkscape:current-layer="layer1"
     showgrid="false"
     inkscape:window-width="2560"
     inkscape:window-height="1377"
     inkscape:window-x="-8"
     inkscape:window-y="-7"
     inkscape:window-maximized="1" />
  <metadata
     id="metadata5445">
    <rdf:RDF>
      <cc:Work
         rdf:about="">
        <dc:format>image/svg+xml</dc:format>
        <dc:type
           rdf:resource="http://purl.org/dc/dcmitype/StillImage" />
        <dc:title></dc:title>
      </cc:Work>
    </rdf:RDF>
  </metadata>
  <g
     inkscape:label="Calque 1"
     inkscape:groupmode="layer"
     id="layer1"
     transform="translate(0,-87)">
    <path
       style="color:#000000;font-style:normal;font-variant:normal;font-weight:normal;font-stretch:normal;font-size:medium;line-height:normal;font-family:sans-serif;font-variant-ligatures:normal;font-variant-position:normal;font-variant-caps:normal;font-variant-numeric:normal;font-variant-alternates:normal;font-feature-settings:normal;text-indent:0;text-align:start;text-decoration:none;text-decoration-line:none;text-decoration-style:solid;text-decoration-color:#000000;letter-spacing:normal;word-spacing:normal;text-transform:none;writing-mode:lr-tb;direction:ltr;text-orientation:mixed;dominant-baseline:auto;baseline-shift:baseline;text-anchor:start;white-space:normal;shape-padding:0;clip-rule:nonzero;display:inline;overflow:visible;visibility:visible;opacity:1;isolation:auto;mix-blend-mode:normal;color-interpolation:sRGB;color-interpolation-filters:linearRGB;solid-color:#000000;solid-opacity:1;vector-effect:none;fill:#000000;fill-opacity:1;fill-rule:nonzero;stroke:none;stroke-width:9.99999905;stroke-linecap:round;stroke-linejoin:round;stroke-miterlimit:4;stroke-dasharray:none;stroke-dashoffset:0;stroke-opacity:1;paint-order:markers fill stroke;color-rendering:auto;image-rendering:auto;shape-rendering:auto;text-rendering:auto;enable-background:accumulate"
       d="M 33.337891,97 C 20.495298,97 10,107.4953 10,120.33789 V 263.66211 C 10,276.5047 20.495298,287 33.337891,287 H 176.66211 C 189.5047,287 200,276.5047 200,263.66211 V 120.33789 C 200,107.4953 189.5047,97 176.66211,97 Z m 0,10 H 176.66211 C 184.13768,107 190,112.86232 190,120.33789 V 263.66211 C 190,271.13768 184.13768,277 176.66211,277 H 33.337891 C 25.862325,277 20,271.13768 20,263.66211 V 120.33789 C 20,112.86232 25.862325,107 33.337891,107 Z"
       id="rect5450"
       inkscape:connector-curvature="0" />
    <path
       style="color:#000000;font-style:normal;font-variant:normal;font-weight:normal;font-stretch:normal;font-size:medium;line-height:normal;font-family:sans-serif;font-variant-ligatures:normal;font-variant-position:normal;font-variant-caps:normal;font-variant-numeric:normal;font-variant-alternates:normal;font-feature-settings:normal;text-indent:0;text-align:start;text-decoration:none;text-decoration-line:none;text-decoration-style:solid;text-decoration-color:#000000;letter-spacing:normal;word-spacing:normal;text-transform:none;writing-mode:lr-tb;direction:ltr;text-orientation:mixed;dominant-baseline:auto;baseline-shift:baseline;text-anchor:start;white-space:normal;shape-padding:0;clip-rule:nonzero;display:inline;overflow:visible;visibility:visible;opacity:1;isolation:auto;mix-blend-mode:normal;color-interpolation:sRGB;color-interpolation-filters:linearRGB;solid-color:#000000;solid-opacity:1;vector-effect:none;fill:#000000;fill-opacity:1;fill-rule:nonzero;stroke:none;stroke-width:10;stroke-linecap:round;stroke-linejoin:round;stroke-miterlimit:4;stroke-dasharray:none;stroke-dashoffset:0;stroke-opacity:1;paint-order:markers fill stroke;color-rendering:auto;image-rendering:auto;shape-rendering:auto;text-rendering:auto;enable-background:accumulate"
       d="m 57.874557,189.43323 c -5.96e-4,-5.5e-4 -1.707174,-1.03613 -1.707885,-1.03639 -7.26e-4,-2.6e-4 -1.92652,-0.31551 -1.927282,-0.31549 -7.63e-4,1e-5 -1.909769,0.41004 -1.910481,0.41034 -7.05e-4,3e-4 -1.653232,1.1201 -1.6538,1.12067 l -1.468859,1.49206 c -5.68e-4,5.8e-4 -1.075373,1.6512 -1.075651,1.65189 -2.7e-4,7e-4 -0.328447,1.86319 -0.328429,1.86393 1.9e-5,7.4e-4 0.421119,1.84445 0.421424,1.84514 3.05e-4,6.7e-4 1.156464,1.59536 1.157061,1.59591 l 40.591094,37.29494 c 5.96e-4,5.5e-4 1.707174,1.03613 1.707892,1.0364 7.26e-4,2.5e-4 1.927881,0.31411 1.928643,0.31409 7.63e-4,-2e-5 1.909769,-0.41005 1.910481,-0.41034 7.05e-4,-3.1e-4 1.653246,-1.1201 1.653814,-1.12068 l 1.468859,-1.49206 c 5.69e-4,-5.7e-4 1.075359,-1.65119 1.075637,-1.65189 2.7e-4,-7e-4 0.328445,-1.86319 0.328425,-1.86392 -1e-5,-7.4e-4 -0.422476,-1.84306 -0.422781,-1.84374 -3.12e-4,-6.8e-4 -1.156471,-1.59538 -1.157068,-1.59592 z"
       id="rect6014"
       inkscape:connector-curvature="0" />
    <path
       style="color:#000000;font-style:normal;font-variant:normal;font-weight:normal;font-stretch:normal;font-size:medium;line-height:normal;font-family:sans-serif;font-variant-ligatures:normal;font-variant-position:normal;font-variant-caps:normal;font-variant-numeric:normal;font-variant-alternates:normal;font-feature-settings:normal;text-indent:0;text-align:start;text-decoration:none;text-decoration-line:none;text-decoration-style:solid;text-decoration-color:#000000;letter-spacing:normal;word-spacing:normal;text-transform:none;writing-mode:lr-tb;direction:ltr;text-orientation:mixed;dominant-baseline:auto;baseline-shift:baseline;text-anchor:start;white-space:normal;shape-padding:0;clip-rule:nonzero;display:inline;overflow:visible;visibility:visible;opacity:1;isolation:auto;mix-blend-mode:normal;color-interpolation:sRGB;color-interpolation-filters:linearRGB;solid-color:#000000;solid-opacity:1;vector-effect:none;fill:#000000;fill-opacity:1;fill-rule:nonzero;stroke:none;stroke-width:10;stroke-linecap:round;stroke-linejoin:round;stroke-miterlimit:4;stroke-dasharray:none;stroke-dashoffset:0;stroke-opacity:1;paint-order:markers fill stroke;color-rendering:auto;image-rendering:auto;shape-rendering:auto;text-rendering:auto;enable-background:accumulate"
       d="m 87.955639,227.0212 c -5.28e-4,6.1e-4 -0.968907,1.73215 -0.969143,1.73287 -2.29e-4,7.3e-4 -0.225268,1.91179 -0.225211,1.91254 5.6e-5,7.5e-4 0.510231,1.85502 0.510572,1.85569 3.35e-4,6.9e-4 1.215802,1.56625 1.216416,1.56678 l 1.738296,1.49833 c 6.14e-4,5.3e-4 1.72687,0.97059 1.727596,0.97082 7.19e-4,2.3e-4 1.906027,0.22799 1.906773,0.22794 7.47e-4,-6e-5 1.850396,-0.51079 1.851071,-0.51113 6.83e-4,-3.3e-4 1.564815,-1.21836 1.565343,-1.21898 l 65.199278,-76.01303 c 5.3e-4,-6.1e-4 0.96743,-1.73341 0.96766,-1.73414 2.4e-4,-7.2e-4 0.22548,-1.90903 0.22543,-1.90977 -6e-5,-7.5e-4 -0.50897,-1.85651 -0.50931,-1.85719 -3.4e-4,-6.8e-4 -1.2158,-1.56625 -1.21642,-1.56678 l -1.73829,-1.49833 c -6.2e-4,-5.3e-4 -1.72687,-0.97058 -1.7276,-0.97081 -7.2e-4,-2.4e-4 -1.90729,-0.22651 -1.90804,-0.22645 -7.4e-4,5e-5 -1.8506,0.50803 -1.85128,0.50836 -6.8e-4,3.4e-4 -1.56334,1.21963 -1.56387,1.22025 z"
       id="rect6016"
       inkscape:connector-curvature="0" />
  </g>
</svg>
